<svg xmlns="http://www.w3.org/2000/svg" xmlns:xlink="http://www.w3.org/1999/xlink" height="283" version="1.1" viewBox="0 0 694 283" width="694"><ellipse cx="45" cy="34" fill="#ff000000" rx="12" ry="12" stroke="#6482B9" stroke-width="1.0"/><text fill="#774400" font-decoration="none" font-family="Arial,Helvetica" font-size="11" font-weight="normal" text-anchor="middle"><tspan x="45" y="12">START</tspan></text><path d="M 38 82 L 63 107 L 38 132 L 13 107 Z" fill="#ffffffff" stroke="#ff505050" stroke-width="1.0"/><text fill="#774400" font-decoration="none" font-family="Arial,Helvetica" font-size="11" font-weight="normal" text-anchor="middle"><tspan x="38" y="110">slevovy kupon</tspan></text><g><path d="M 40.395199575542755 83.84640410308673 L 38.02851910057613 77.5695558868709 L 40.85824575542753 79.37029103086725 L 43.996669863535445 78.18695079338393 z" fill="ff6482b9" stroke="ff6482b9" stroke-width="1.0"/><path d="M 44.162311035888614 47.43099331974345 L 40.34375 84.34375" fill="none" stroke="ff6482b9" stroke-width="1.0"/></g><text fill="#446299" font-decoration="none" font-family="Arial,Helvetica" font-size="11" font-weight="normal" text-anchor="middle"><tspan x="42" y="68">1</tspan></text><rect fill="#ffffffff" height="40" rx="12.0" ry="12.0" stroke="#ff505050" stroke-width="1.0" width="80" x="3" y="182"/><text fill="#774400" font-decoration="none" font-family="Arial,Helvetica" font-size="11" font-weight="normal" text-anchor="middle"><tspan x="43" y="205">zadani kuponu</tspan></text><g><path d="M 41.92108900449125 181.50069108533376 L 38.60988251775714 175.666660608707 L 41.68457425543881 177.00691085333747 L 44.6015894937522 175.35130760997043 z" fill="ff6482b9" stroke="ff6482b9" stroke-width="1.0"/><path d="M 39.27627941656138 131.24930891466624 L 41.94736842105263 182.0" fill="none" stroke="ff6482b9" stroke-width="1.0"/></g><text fill="#446299" font-decoration="none" font-family="Arial,Helvetica" font-size="11" font-weight="normal" text-anchor="middle"><tspan x="40" y="159">ano</tspan></text><path d="M 153 182 L 173 202 L 153 222 L 133 202 Z" fill="#ffffffff" stroke="#ff505050" stroke-width="1.0"/><text fill="#774400" font-decoration="none" font-family="Arial,Helvetica" font-size="11" font-weight="normal" text-anchor="middle"><tspan x="152" y="199">kontrola</tspan><tspan x="152" y="210"> kuponu </tspan></text><g><path d="M 132.5 202.0 L 126.5 205.0 L 128.0 202.0 L 126.5 199.0 z" fill="ff6482b9" stroke="ff6482b9" stroke-width="1.0"/><path d="M 83.5 202.0 L 133.0 202.0" fill="none" stroke="ff6482b9" stroke-width="1.0"/></g><text fill="#446299" font-decoration="none" font-family="Arial,Helvetica" font-size="11" font-weight="normal" text-anchor="middle"><tspan x="108" y="205">3</tspan></text><g><path d="M 52.07595706628973 118.62796453302195 L 58.612371917041145 120.13636796011843 L 55.54528494861164 121.49393104450526 L 54.7910832350634 124.76213846988097 z" fill="ff6482b9" stroke="ff6482b9" stroke-width="1.0"/><path d="M 141.66213817180548 192.6339402288828 L 51.69047619047619 118.30952380952381" fill="none" stroke="ff6482b9" stroke-width="1.0"/></g><text fill="#446299" font-decoration="none" font-family="Arial,Helvetica" font-size="11" font-weight="normal" text-anchor="middle"><tspan x="96" y="158">chyba</tspan></text><path d="M 243 142 L 273 167 L 243 192 L 213 167 Z" fill="#ffffffff" stroke="#ff505050" stroke-width="1.0"/><text fill="#774400" font-decoration="none" font-family="Arial,Helvetica" font-size="11" font-weight="normal" text-anchor="middle"><tspan x="243" y="164">sleva </tspan><tspan x="243" y="175">na vek</tspan></text><g><path d="M 220.3179652315139 160.36135567751626 L 213.71684452965215 161.55517537891677 L 215.9991468999767 159.09731128779805 L 215.4022370492764 155.79675093686717 z" fill="ff6482b9" stroke="ff6482b9" stroke-width="1.0"/><path d="M 57.819491345013574 112.80082673512592 L 220.79783393501805 160.50180505415162" fill="none" stroke="ff6482b9" stroke-width="1.0"/></g><text fill="#446299" font-decoration="none" font-family="Arial,Helvetica" font-size="11" font-weight="normal" text-anchor="middle"><tspan x="151" y="124">NE</tspan></text><g><path d="M 222.07945220968392 175.13576858512295 L 217.57476296390098 180.10646016667653 L 217.88543118774808 176.76677676032023 L 215.4000853969713 174.51443213742874 z" fill="ff6482b9" stroke="ff6482b9" stroke-width="1.0"/><path d="M 167.86600233577065 196.21877686942253 L 222.54545454545456 174.95454545454547" fill="none" stroke="ff6482b9" stroke-width="1.0"/></g><text fill="#446299" font-decoration="none" font-family="Arial,Helvetica" font-size="11" font-weight="normal" text-anchor="middle"><tspan x="194" y="188">OK</tspan></text><rect fill="#ffffffff" height="40" rx="12.0" ry="12.0" stroke="#ff505050" stroke-width="1.0" width="80" x="213" y="232"/><text fill="#774400" font-decoration="none" font-family="Arial,Helvetica" font-size="11" font-weight="normal" text-anchor="middle"><tspan x="253" y="249">vyber platebni</tspan><tspan x="253" y="260">metody</tspan></text><g><path d="M 250.5886381997457 231.50342469783857 L 246.9081389013727 225.8950448146035 L 250.0628525856924 227.03424697838562 L 252.86704252730993 225.1939973291991 z" fill="ff6482b9" stroke="ff6482b9" stroke-width="1.0"/><path d="M 245.73699205235513 190.26443244501857 L 250.6470588235294 232.0" fill="none" stroke="ff6482b9" stroke-width="1.0"/></g><text fill="#446299" font-decoration="none" font-family="Arial,Helvetica" font-size="11" font-weight="normal" text-anchor="middle"><tspan x="248" y="213">ne</tspan></text><path d="M 493 222 L 523 252 L 493 282 L 463 252 Z" fill="#ffffffff" stroke="#ff505050" stroke-width="1.0"/><text fill="#774400" font-decoration="none" font-family="Arial,Helvetica" font-size="11" font-weight="normal" text-anchor="middle"><tspan x="493" y="249">metoda </tspan><tspan x="493" y="260">platby</tspan></text><g><path d="M 462.5 252.0 L 456.5 255.0 L 458.0 252.0 L 456.5 249.0 z" fill="ff6482b9" stroke="ff6482b9" stroke-width="1.0"/><path d="M 293.5 252.0 L 463.0 252.0" fill="none" stroke="ff6482b9" stroke-width="1.0"/></g><text fill="#446299" font-decoration="none" font-family="Arial,Helvetica" font-size="11" font-weight="normal" text-anchor="middle"><tspan x="378" y="255">8</tspan></text><path d="M 393 142 L 423 172 L 393 202 L 363 172 Z" fill="#ffffffff" stroke="#ff505050" stroke-width="1.0"/><text fill="#774400" font-decoration="none" font-family="Arial,Helvetica" font-size="11" font-weight="normal" text-anchor="middle"><tspan x="392" y="169">kontrola </tspan><tspan x="392" y="180">podminek</tspan></text><g><path d="M 366.8073141938894 167.61702185957176 L 360.39447050599824 169.58563452708017 L 362.36902418090216 166.87433635370945 L 361.38471784714795 163.66791450976388 z" fill="ff6482b9" stroke="ff6482b9" stroke-width="1.0"/><path d="M 270.29807275279774 164.284276303862 L 318.3331483023264 159.50555093020847 L 367.30045752866573 167.69954247133424" fill="none" stroke="ff6482b9" stroke-width="1.0"/></g><text fill="#446299" font-decoration="none" font-family="Arial,Helvetica" font-size="11" font-weight="normal" text-anchor="middle"><tspan x="318" y="162">9</tspan></text><g><path d="M 268.4764222727793 171.26312149676002 L 274.88926596067046 169.2945088292516 L 272.91471228576654 172.00580700262233 L 273.89901861952075 175.2122288465679 z" fill="ff6482b9" stroke="ff6482b9" stroke-width="1.0"/><path d="M 365.2169314135328 174.76397306121046 L 317.6668516976736 179.49444906979156 L 267.98327893800297 171.18060088499755" fill="none" stroke="ff6482b9" stroke-width="1.0"/></g><text fill="#446299" font-decoration="none" font-family="Arial,Helvetica" font-size="11" font-weight="normal" text-anchor="middle"><tspan x="316" y="182">podminky nesplneny</tspan></text><g><path d="M 288.43412157106224 231.7519305308216 L 292.1551636087385 226.1703674743072 L 292.3412157106223 229.51930530821585 L 295.1319972388795 231.37982632705396 z" fill="ff6482b9" stroke="ff6482b9" stroke-width="1.0"/><path d="M 373.4749693380287 183.1571603782693 L 288.0 232.0" fill="none" stroke="ff6482b9" stroke-width="1.0"/></g><text fill="#446299" font-decoration="none" font-family="Arial,Helvetica" font-size="11" font-weight="normal" text-anchor="middle"><tspan x="330" y="210">??</tspan></text><rect fill="#ffffffff" height="50" rx="15.0" ry="15.0" stroke="#ff505050" stroke-width="1.0" width="100" x="443" y="142"/><text fill="#774400" font-decoration="none" font-family="Arial,Helvetica" font-size="11" font-weight="normal" text-anchor="middle"><tspan x="493" y="164">Vystaveni udaju</tspan><tspan x="493" y="175">pro prevod</tspan></text><g><path d="M 493.0 192.5 L 496.0 198.5 L 493.0 197.0 L 490.0 198.5 z" fill="ff6482b9" stroke="ff6482b9" stroke-width="1.0"/><path d="M 493.0 221.5 L 493.0 192.0" fill="none" stroke="ff6482b9" stroke-width="1.0"/></g><text fill="#446299" font-decoration="none" font-family="Arial,Helvetica" font-size="11" font-weight="normal" text-anchor="middle"><tspan x="493" y="210">prevodem</tspan></text><g><ellipse cx="490" cy="59" fill="#ff000000" rx="17" ry="17" stroke="#ffffffff" stroke-width="5.0"/><ellipse cx="490" cy="59" fill="none" rx="9" ry="9" stroke="#ffffffff" stroke-width="5.0"/></g><text fill="#774400" font-decoration="none" font-family="Arial,Helvetica" font-size="11" font-weight="normal" text-anchor="middle"><tspan x="490" y="27">END 1</tspan></text><g><path d="M 490.9184914994983 77.49513447842713 L 494.05717774558144 83.42376405436191 L 491.02311437436776 81.99391809781294 L 488.0587995864003 83.5632612208545 z" fill="ff6482b9" stroke="ff6482b9" stroke-width="1.0"/><path d="M 492.4069798872884 141.50013515340157 L 490.9068667356239 76.9952696318287" fill="none" stroke="ff6482b9" stroke-width="1.0"/></g><text fill="#446299" font-decoration="none" font-family="Arial,Helvetica" font-size="11" font-weight="normal" text-anchor="middle"><tspan x="491" y="112">13</tspan></text><rect fill="#ffffffff" height="60" rx="18.0" ry="18.0" stroke="#ff505050" stroke-width="1.0" width="100" x="593" y="222"/><text fill="#774400" font-decoration="none" font-family="Arial,Helvetica" font-size="11" font-weight="normal" text-anchor="middle"><tspan x="643" y="249">Vstup do platebni</tspan><tspan x="643" y="260">aplikace</tspan></text><g><path d="M 592.5 252.0 L 586.5 255.0 L 588.0 252.0 L 586.5 249.0 z" fill="ff6482b9" stroke="ff6482b9" stroke-width="1.0"/><path d="M 523.5 252.0 L 593.0 252.0" fill="none" stroke="ff6482b9" stroke-width="1.0"/></g><text fill="#446299" font-decoration="none" font-family="Arial,Helvetica" font-size="11" font-weight="normal" text-anchor="middle"><tspan x="558" y="255">online</tspan></text><path d="M 643 132 L 673 162 L 643 192 L 613 162 Z" fill="#ffffffff" stroke="#ff505050" stroke-width="1.0"/><text fill="#774400" font-decoration="none" font-family="Arial,Helvetica" font-size="11" font-weight="normal" text-anchor="middle"><tspan x="642" y="159">kontrola </tspan><tspan x="642" y="170">platby</tspan></text><g><path d="M 643.0 192.5 L 646.0 198.5 L 643.0 197.0 L 640.0 198.5 z" fill="ff6482b9" stroke="ff6482b9" stroke-width="1.0"/><path d="M 643.0 221.5 L 643.0 192.0" fill="none" stroke="ff6482b9" stroke-width="1.0"/></g><text fill="#446299" font-decoration="none" font-family="Arial,Helvetica" font-size="11" font-weight="normal" text-anchor="middle"><tspan x="643" y="210">15</tspan></text><g><ellipse cx="640" cy="59" fill="#ff000000" rx="17" ry="17" stroke="#ffffffff" stroke-width="5.0"/><ellipse cx="640" cy="59" fill="none" rx="9" ry="9" stroke="#ffffffff" stroke-width="5.0"/></g><text fill="#774400" font-decoration="none" font-family="Arial,Helvetica" font-size="11" font-weight="normal" text-anchor="middle"><tspan x="640" y="27">END 2</tspan></text><g><path d="M 640.9388938642155 77.49464843283613 L 644.0842998908729 83.4197155993303 L 641.0486173302617 81.99331054072985 L 638.0860837470145 83.56601355405856 z" fill="ff6482b9" stroke="ff6482b9" stroke-width="1.0"/><path d="M 642.2735227894868 132.2144343689642 L 640.9267023679881 76.9947970875146" fill="none" stroke="ff6482b9" stroke-width="1.0"/></g><text fill="#446299" font-decoration="none" font-family="Arial,Helvetica" font-size="11" font-weight="normal" text-anchor="middle"><tspan x="641" y="102">platba </tspan><tspan x="641" y="113">uspesna</tspan></text><g><path d="M 512.1787464628562 240.49275212228625 L 515.7802167508489 234.83329881258345 L 516.0374646285627 238.17752122286237 L 518.8671912834141 239.97825636685872 z" fill="ff6482b9" stroke="ff6482b9" stroke-width="1.0"/><path d="M 623.8212535371438 173.50724787771375 L 511.75 240.75" fill="none" stroke="ff6482b9" stroke-width="1.0"/></g><text fill="#446299" font-decoration="none" font-family="Arial,Helvetica" font-size="11" font-weight="normal" text-anchor="middle"><tspan x="568" y="204">platba </tspan><tspan x="568" y="215">neuspesna</tspan></text></svg>